<?xml version="1.0" encoding="UTF-8" standalone="no"?>
<!-- Created with Inkscape (http://www.inkscape.org/) -->

<svg
   xmlns:dc="http://purl.org/dc/elements/1.1/"
   xmlns:cc="http://creativecommons.org/ns#"
   xmlns:rdf="http://www.w3.org/1999/02/22-rdf-syntax-ns#"
   xmlns:svg="http://www.w3.org/2000/svg"
   xmlns="http://www.w3.org/2000/svg"
   xmlns:xlink="http://www.w3.org/1999/xlink"
   xmlns:sodipodi="http://sodipodi.sourceforge.net/DTD/sodipodi-0.dtd"
   xmlns:inkscape="http://www.inkscape.org/namespaces/inkscape"
   width="1680"
   height="60"
   id="svg3656"
   version="1.1"
   inkscape:version="0.47 r22583"
   sodipodi:docname="H2.svg"
   inkscape:export-filename="G:\AUTOMATION\Projet KIWI\Développement\WITEK\Background\H2C.png"
   inkscape:export-xdpi="90"
   inkscape:export-ydpi="90"
   enable-background="new">
  <defs
     id="defs3658">
    <inkscape:perspective
       sodipodi:type="inkscape:persp3d"
       inkscape:vp_x="0 : 526.18109 : 1"
       inkscape:vp_y="0 : 1000 : 0"
       inkscape:vp_z="744.09448 : 526.18109 : 1"
       inkscape:persp3d-origin="372.04724 : 350.78739 : 1"
       id="perspective3664" />
    <inkscape:perspective
       id="perspective2903"
       inkscape:persp3d-origin="39.407501 : 33.333333 : 1"
       inkscape:vp_z="78.815002 : 50 : 1"
       inkscape:vp_y="0 : 1000 : 0"
       inkscape:vp_x="0 : 50 : 1"
       sodipodi:type="inkscape:persp3d" />
    <inkscape:perspective
       id="perspective2948"
       inkscape:persp3d-origin="45.9245 : 33.333333 : 1"
       inkscape:vp_z="91.848999 : 50 : 1"
       inkscape:vp_y="0 : 1000 : 0"
       inkscape:vp_x="0 : 50 : 1"
       sodipodi:type="inkscape:persp3d" />
    <inkscape:perspective
       id="perspective3044"
       inkscape:persp3d-origin="39.407501 : 33.333333 : 1"
       inkscape:vp_z="78.815002 : 50 : 1"
       inkscape:vp_y="0 : 1000 : 0"
       inkscape:vp_x="0 : 50 : 1"
       sodipodi:type="inkscape:persp3d" />
    <inkscape:perspective
       id="perspective2853"
       inkscape:persp3d-origin="0.5 : 0.33333333 : 1"
       inkscape:vp_z="1 : 0.5 : 1"
       inkscape:vp_y="0 : 1000 : 0"
       inkscape:vp_x="0 : 0.5 : 1"
       sodipodi:type="inkscape:persp3d" />
    <filter
       inkscape:collect="always"
       id="filter3668">
      <feBlend
         inkscape:collect="always"
         mode="screen"
         in2="BackgroundImage"
         id="feBlend3670" />
    </filter>
    <filter
       inkscape:collect="always"
       id="filter3721">
      <feBlend
         inkscape:collect="always"
         mode="screen"
         in2="BackgroundImage"
         id="feBlend3723" />
    </filter>
    <inkscape:perspective
       id="perspective3806"
       inkscape:persp3d-origin="45.9245 : 33.333333 : 1"
       inkscape:vp_z="91.848999 : 50 : 1"
       inkscape:vp_y="0 : 1000 : 0"
       inkscape:vp_x="0 : 50 : 1"
       sodipodi:type="inkscape:persp3d" />
    <inkscape:perspective
       id="perspective3860"
       inkscape:persp3d-origin="45.9245 : 33.333333 : 1"
       inkscape:vp_z="91.848999 : 50 : 1"
       inkscape:vp_y="0 : 1000 : 0"
       inkscape:vp_x="0 : 50 : 1"
       sodipodi:type="inkscape:persp3d" />
    <inkscape:perspective
       id="perspective3940"
       inkscape:persp3d-origin="45.9245 : 33.333333 : 1"
       inkscape:vp_z="91.848999 : 50 : 1"
       inkscape:vp_y="0 : 1000 : 0"
       inkscape:vp_x="0 : 50 : 1"
       sodipodi:type="inkscape:persp3d" />
    <inkscape:perspective
       id="perspective4046"
       inkscape:persp3d-origin="50 : 33.333333 : 1"
       inkscape:vp_z="100 : 50 : 1"
       inkscape:vp_y="0 : 1000 : 0"
       inkscape:vp_x="0 : 50 : 1"
       sodipodi:type="inkscape:persp3d" />
    <inkscape:perspective
       id="perspective4103"
       inkscape:persp3d-origin="49.622002 : 33.333333 : 1"
       inkscape:vp_z="99.244003 : 50 : 1"
       inkscape:vp_y="0 : 1000 : 0"
       inkscape:vp_x="0 : 50 : 1"
       sodipodi:type="inkscape:persp3d" />
    <inkscape:perspective
       id="perspective4284"
       inkscape:persp3d-origin="45.167 : 33.333333 : 1"
       inkscape:vp_z="90.334 : 50 : 1"
       inkscape:vp_y="0 : 1000 : 0"
       inkscape:vp_x="0 : 50 : 1"
       sodipodi:type="inkscape:persp3d" />
    <inkscape:perspective
       id="perspective4347"
       inkscape:persp3d-origin="36.5205 : 33.333333 : 1"
       inkscape:vp_z="73.041 : 50 : 1"
       inkscape:vp_y="0 : 1000 : 0"
       inkscape:vp_x="0 : 50 : 1"
       sodipodi:type="inkscape:persp3d" />
    <inkscape:perspective
       id="perspective4372"
       inkscape:persp3d-origin="21.9825 : 33.333333 : 1"
       inkscape:vp_z="43.965 : 50 : 1"
       inkscape:vp_y="0 : 1000 : 0"
       inkscape:vp_x="0 : 50 : 1"
       sodipodi:type="inkscape:persp3d" />
    <inkscape:perspective
       id="perspective4412"
       inkscape:persp3d-origin="44.891499 : 33.333333 : 1"
       inkscape:vp_z="89.782997 : 50 : 1"
       inkscape:vp_y="0 : 1000 : 0"
       inkscape:vp_x="0 : 50 : 1"
       sodipodi:type="inkscape:persp3d" />
    <inkscape:perspective
       id="perspective4502"
       inkscape:persp3d-origin="36.5205 : 33.333333 : 1"
       inkscape:vp_z="73.041 : 50 : 1"
       inkscape:vp_y="0 : 1000 : 0"
       inkscape:vp_x="0 : 50 : 1"
       sodipodi:type="inkscape:persp3d" />
    <inkscape:perspective
       id="perspective2936"
       inkscape:persp3d-origin="50.0005 : 30.614001 : 1"
       inkscape:vp_z="100.001 : 45.921001 : 1"
       inkscape:vp_y="0 : 1000 : 0"
       inkscape:vp_x="0 : 45.921001 : 1"
       sodipodi:type="inkscape:persp3d" />
    <inkscape:perspective
       id="perspective3805"
       inkscape:persp3d-origin="50 : 33.333666 : 1"
       inkscape:vp_z="100 : 50.0005 : 1"
       inkscape:vp_y="0 : 1000 : 0"
       inkscape:vp_x="0 : 50.0005 : 1"
       sodipodi:type="inkscape:persp3d" />
    <inkscape:perspective
       id="perspective4242"
       inkscape:persp3d-origin="50 : 17.331999 : 1"
       inkscape:vp_z="100 : 25.997999 : 1"
       inkscape:vp_y="0 : 1000 : 0"
       inkscape:vp_x="0 : 25.997999 : 1"
       sodipodi:type="inkscape:persp3d" />
    <inkscape:perspective
       id="perspective4279"
       inkscape:persp3d-origin="50 : 17.331999 : 1"
       inkscape:vp_z="100 : 25.997999 : 1"
       inkscape:vp_y="0 : 1000 : 0"
       inkscape:vp_x="0 : 25.997999 : 1"
       sodipodi:type="inkscape:persp3d" />
    <inkscape:perspective
       id="perspective4300"
       inkscape:persp3d-origin="0.5 : 0.33333333 : 1"
       inkscape:vp_z="1 : 0.5 : 1"
       inkscape:vp_y="0 : 1000 : 0"
       inkscape:vp_x="0 : 0.5 : 1"
       sodipodi:type="inkscape:persp3d" />
    <inkscape:perspective
       id="perspective4324"
       inkscape:persp3d-origin="0.5 : 0.33333333 : 1"
       inkscape:vp_z="1 : 0.5 : 1"
       inkscape:vp_y="0 : 1000 : 0"
       inkscape:vp_x="0 : 0.5 : 1"
       sodipodi:type="inkscape:persp3d" />
    <inkscape:perspective
       id="perspective4324-7"
       inkscape:persp3d-origin="0.5 : 0.33333333 : 1"
       inkscape:vp_z="1 : 0.5 : 1"
       inkscape:vp_y="0 : 1000 : 0"
       inkscape:vp_x="0 : 0.5 : 1"
       sodipodi:type="inkscape:persp3d" />
  </defs>
  <sodipodi:namedview
     id="base"
     pagecolor="#ffffff"
     bordercolor="#666666"
     borderopacity="1.0"
     inkscape:pageopacity="0.0"
     inkscape:pageshadow="2"
     inkscape:zoom="0.81011905"
     inkscape:cx="840"
     inkscape:cy="30"
     inkscape:document-units="px"
     inkscape:current-layer="layer6"
     showgrid="false"
     inkscape:window-width="1680"
     inkscape:window-height="1024"
     inkscape:window-x="-4"
     inkscape:window-y="-4"
     inkscape:window-maximized="1" />
  <metadata
     id="metadata3661">
    <rdf:RDF>
      <cc:Work
         rdf:about="">
        <dc:format>image/svg+xml</dc:format>
        <dc:type
           rdf:resource="http://purl.org/dc/dcmitype/StillImage" />
        <dc:title></dc:title>
      </cc:Work>
    </rdf:RDF>
  </metadata>
  <g
     inkscape:groupmode="layer"
     id="layer5"
     inkscape:label="Fond"
     style="display:inline"
     sodipodi:insensitive="true">
    <image
       y="-1200"
       x="0"
       id="image2855"
       height="1260"
       width="1680"
       xlink:href="file:///G:/AUTOMATION/Projet%20KIWI/D%C3%A9veloppement/WITEK/Background/R%C3%A9f%C3%A9rences/Metal%20-%20Brushed.jpg" />
  </g>
  <g
     inkscape:label="Base"
     inkscape:groupmode="layer"
     id="layer1"
     transform="translate(0,-992.36218)"
     style="display:inline;filter:url(#filter3721)"
     sodipodi:insensitive="true">
    <rect
       style="fill:#808080;fill-opacity:1;stroke:none"
       id="rect2922"
       width="130"
       height="55"
       x="1545"
       y="992.36218"
       ry="0" />
    <rect
       ry="0"
       y="992.36218"
       x="1405"
       height="55"
       width="130"
       id="rect2985"
       style="fill:#808080;fill-opacity:1;stroke:none" />
    <rect
       style="fill:#808080;fill-opacity:1;stroke:none"
       id="rect3063"
       width="130"
       height="55"
       x="1265"
       y="992.36218"
       ry="0" />
    <g
       transform="matrix(0.00857143,0,0,0.00857143,1107.6517,1037.8123)"
       id="g3065">
      <rect
         ry="15.714287"
         y="1064.1521"
         x="1440.6299"
         height="50"
         width="116.66666"
         id="rect3067"
         style="fill:#808080;fill-opacity:1;stroke:none" />
      <path
         d="m 1530.2535,1086.8291 -5.0555,-5.121 h -30.0851 c -2.5856,-4.5129 -7.4468,-7.556 -13.021,-7.556 -8.2842,0 -15.0005,6.7152 -15.0005,14.9995 0,8.2842 6.7152,15.0005 15.0005,15.0005 5.6408,0 10.5511,-3.1152 13.1127,-7.7176 h 5.8821 l 4.6668,-4.7279 3.589,3.6371 3.5902,-3.6371 3.5891,3.6371 3.6491,-3.6972 3.7398,3.7879 0.09,-0.031 6.2817,-6.3647 c 0.7196,-0.725 0.7633,-1.4064 -0.028,-2.21 z m -54.7173,6.1201 c -2.2253,0 -4.0291,-1.8038 -4.0291,-4.0291 0,-2.2242 1.8038,-4.0281 4.0291,-4.0281 2.2253,0 4.028,1.8039 4.028,4.0281 0,2.2242 -1.8027,4.0291 -4.028,4.0291 z"
         id="path3069" />
    </g>
    <rect
       style="fill:#808080;fill-opacity:1;stroke:none"
       id="rect3071"
       width="130"
       height="55"
       x="1125"
       y="992.36218"
       ry="0.29743752" />
    <rect
       ry="0"
       y="992.36218"
       x="985"
       height="55"
       width="130"
       id="rect3075"
       style="fill:#808080;fill-opacity:1;stroke:none" />
    <rect
       ry="0"
       y="992.36218"
       x="565"
       height="55"
       width="130"
       id="rect3077"
       style="fill:#808080;fill-opacity:1;stroke:none" />
    <g
       transform="matrix(0.00857143,0,0,0.00857143,477.15174,1010.5266)"
       id="g3085">
      <rect
         ry="15.714287"
         y="1064.1521"
         x="1440.6299"
         height="50"
         width="116.66666"
         id="rect3087"
         style="fill:#808080;fill-opacity:1;stroke:none" />
      <path
         d="m 1530.2535,1086.8291 -5.0555,-5.121 h -30.0851 c -2.5856,-4.5129 -7.4468,-7.556 -13.021,-7.556 -8.2842,0 -15.0005,6.7152 -15.0005,14.9995 0,8.2842 6.7152,15.0005 15.0005,15.0005 5.6408,0 10.5511,-3.1152 13.1127,-7.7176 h 5.8821 l 4.6668,-4.7279 3.589,3.6371 3.5902,-3.6371 3.5891,3.6371 3.6491,-3.6972 3.7398,3.7879 0.09,-0.031 6.2817,-6.3647 c 0.7196,-0.725 0.7633,-1.4064 -0.028,-2.21 z m -54.7173,6.1201 c -2.2253,0 -4.0291,-1.8038 -4.0291,-4.0291 0,-2.2242 1.8038,-4.0281 4.0291,-4.0281 2.2253,0 4.028,1.8039 4.028,4.0281 0,2.2242 -1.8027,4.0291 -4.028,4.0291 z"
         id="path3089" />
    </g>
    <rect
       style="fill:#808080;fill-opacity:1;stroke:none"
       id="rect3091"
       width="130"
       height="55"
       x="425"
       y="992.36218"
       ry="0" />
    <rect
       ry="0"
       y="992.36218"
       x="285"
       height="55"
       width="130"
       id="rect3095"
       style="fill:#808080;fill-opacity:1;stroke:none" />
    <g
       id="g3097"
       transform="matrix(0.00857143,0,0,0.00857143,57.151742,1010.5266)">
      <rect
         style="fill:#808080;fill-opacity:1;stroke:none"
         id="rect3099"
         width="116.66666"
         height="50"
         x="1440.6299"
         y="1064.1521"
         ry="15.714287" />
      <path
         id="path3101"
         d="m 1530.2535,1086.8291 -5.0555,-5.121 h -30.0851 c -2.5856,-4.5129 -7.4468,-7.556 -13.021,-7.556 -8.2842,0 -15.0005,6.7152 -15.0005,14.9995 0,8.2842 6.7152,15.0005 15.0005,15.0005 5.6408,0 10.5511,-3.1152 13.1127,-7.7176 h 5.8821 l 4.6668,-4.7279 3.589,3.6371 3.5902,-3.6371 3.5891,3.6371 3.6491,-3.6972 3.7398,3.7879 0.09,-0.031 6.2817,-6.3647 c 0.7196,-0.725 0.7633,-1.4064 -0.028,-2.21 z m -54.7173,6.1201 c -2.2253,0 -4.0291,-1.8038 -4.0291,-4.0291 0,-2.2242 1.8038,-4.0281 4.0291,-4.0281 2.2253,0 4.028,1.8039 4.028,4.0281 0,2.2242 -1.8027,4.0291 -4.028,4.0291 z" />
    </g>
    <rect
       ry="0"
       y="992.36218"
       x="145"
       height="55"
       width="130"
       id="rect3103"
       style="fill:#808080;fill-opacity:1;stroke:none" />
    <rect
       style="fill:#808080;fill-opacity:1;stroke:none"
       id="rect3105"
       width="130"
       height="55"
       x="5"
       y="992.36218"
       ry="0" />
  </g>
  <g
     inkscape:groupmode="layer"
     id="layer2"
     inkscape:label="H2A"
     style="display:none"
     sodipodi:insensitive="true">
    <rect
       style="fill:#00ff00;stroke:#00ff00;stroke-width:2;stroke-linejoin:miter;stroke-miterlimit:4;stroke-opacity:1;stroke-dasharray:none;stroke-dashoffset:0"
       id="rect4314"
       width="128"
       height="53"
       x="986"
       y="1" />
  </g>
  <g
     inkscape:groupmode="layer"
     id="layer3"
     inkscape:label="H2B"
     style="display:none"
     sodipodi:insensitive="true">
    <rect
       style="fill:#00ffff;stroke:#00ffff;stroke-width:2;stroke-linejoin:miter;stroke-miterlimit:4;stroke-opacity:1;stroke-dasharray:none;stroke-dashoffset:0;display:inline"
       id="rect4314-1"
       width="128"
       height="53"
       x="1126"
       y="1" />
  </g>
  <g
     inkscape:groupmode="layer"
     id="layer4"
     inkscape:label="H2C"
     style="display:inline"
     sodipodi:insensitive="true">
    <rect
       style="fill:#ffff00;stroke:#ffff00;stroke-width:2;stroke-linejoin:miter;stroke-miterlimit:4;stroke-opacity:1;stroke-dasharray:none;stroke-dashoffset:0;display:inline"
       id="rect4314-4"
       width="128"
       height="53"
       x="1266"
       y="1" />
  </g>
  <g
     inkscape:groupmode="layer"
     id="layer6"
     inkscape:label="Pictogrammes"
     style="display:inline"
     sodipodi:insensitive="true">
    <g
       style="display:inline;filter:url(#filter3668)"
       id="g2951"
       transform="matrix(0.32662992,0,0,0.32662992,1595,13.66852)" />
    <g
       id="g3943"
       transform="matrix(0.4,0,0,0.4,1591.6306,7.5000026)">
      <path
         id="path3930"
         d="M 0,53.572 C -0.016,40.7 5.321,30.962 10.48,24.78 l 0,0 c 5.187,-6.233 10.224,-9.236 10.676,-9.516 l 0,0 c 3.368,-1.993 7.697,-0.849 9.667,2.555 l 0,0 c 1.966,3.392 0.851,7.747 -2.489,9.75 l 0,0 0.001,0.001 c 0,0 -0.004,0.001 -0.015,0.008 l 0,0 c -0.009,0.004 -0.023,0.014 -0.042,0.026 l 0,0 c -0.068,0.042 -0.194,0.125 -0.367,0.244 l 0,0 c -0.351,0.234 -0.897,0.625 -1.572,1.162 l 0,0 c -1.349,1.073 -3.203,2.74 -5.029,4.945 l 0,0 c -3.669,4.467 -7.166,10.798 -7.181,19.616 l 0,0 c 0.003,8.889 3.547,16.882 9.314,22.722 l 0,0 c 5.78,5.83 13.687,9.416 22.48,9.418 l 0,0 c 8.793,-0.002 16.699,-3.588 22.478,-9.418 l 0,0 c 5.769,-5.84 9.313,-13.833 9.316,-22.722 l 0,0 C 77.701,45.023 74.423,38.828 70.88,34.376 l 0,0 c -3.373,-4.221 -6.982,-6.572 -7.341,-6.791 l 0,0 C 63.535,27.582 63.53,27.581 63.527,27.579 l 0,0 c -0.005,-0.003 -0.008,-0.005 -0.011,-0.006 l 0,0 C 63.513,27.57 63.509,27.57 63.509,27.57 l 0,0 0,0 c -3.336,-2.005 -4.452,-6.36 -2.488,-9.752 l 0,0 c 1.972,-3.404 6.3,-4.548 9.667,-2.555 l 0,0 c 0.454,0.279 5.491,3.282 10.678,9.516 l 0,0 c 5.162,6.183 10.496,15.92 10.481,28.792 l 0,0 C 91.843,79.208 71.283,99.991 45.924,100 l 0,0 C 20.565,99.991 0.006,79.208 0,53.572 l 0,0 z" />
      <path
         id="path3932"
         d="M 38.859,50.001 V 28.571 7.143 C 38.859,3.199 42.022,0 45.925,0 l 0,0 c 3.899,0 7.062,3.199 7.062,7.143 l 0,0 v 21.428 21.43 h 0.002 c 0,3.941 -3.165,7.141 -7.064,7.141 l 0,0 c -3.903,0 -7.066,-3.2 -7.066,-7.141 l 0,0 z" />
    </g>
    <g
       id="g4106"
       transform="matrix(0.4,0,0,0.4,190.1512,7.5000026)">
      <path
         id="path4093"
         d="M 98.555,60.187 C 97.743,58.231 96.931,56.277 96.118,54.322 93.466,47.934 90.812,41.548 88.159,35.16 84.173,25.563 80.187,15.967 76.2,6.371 76.139,6.225 76.035,6.116 75.865,6.116 c -5.544,0 -11.089,0 -16.633,0 -0.103,0 -0.181,0.037 -0.235,0.093 -0.004,0.003 -0.007,0.006 -0.01,0.009 -0.003,0.003 -0.007,0.006 -0.009,0.01 -0.057,0.055 -0.094,0.133 -0.094,0.235 0,1.706 0,3.412 0,5.119 0,0.189 0.158,0.347 0.348,0.347 1.277,0 2.556,0 3.834,0 1.826,0 3.653,0 5.479,0 0.612,0 1.226,0 1.838,0 0.057,0 0.102,10e-4 0.139,10e-4 0.435,1.025 0.869,2.051 1.304,3.077 2.423,5.718 4.845,11.437 7.268,17.154 4.152,9.8 8.304,19.601 12.455,29.4 -0.076,0 -0.152,0 -0.229,0 -6.489,0 -12.979,0 -19.467,0 -0.974,0 -1.946,0 -2.919,0 -0.335,0 -0.67,0 -1.005,0 h -1.481 c -0.02,0.005 -0.041,0.007 -0.061,0.013 -0.231,0.063 -0.412,0.455 -0.534,0.632 -0.355,0.513 -0.711,1.025 -1.066,1.538 -1.049,1.516 -2.098,3.03 -3.146,4.545 -0.58,0.837 -1.158,1.673 -1.737,2.509 -0.123,0 -0.246,0 -0.368,0 -0.45,0 -0.9,0 -1.35,0 -2.854,0 -5.709,0 -8.562,0 -2.854,0 -5.708,0 -8.562,0 -0.449,0 -0.899,0 -1.35,0 -0.122,0 -0.245,0 -0.368,0 C 38.765,69.962 38.187,69.126 37.607,68.289 36.558,66.774 35.509,65.26 34.461,63.744 34.106,63.231 33.75,62.719 33.395,62.206 33.273,62.029 33.092,61.638 32.861,61.574 32.841,61.568 32.82,61.566 32.8,61.561 h -1.481 c -0.335,0 -0.67,0 -1.005,0 -0.973,0 -1.945,0 -2.919,0 -6.488,0 -12.978,0 -19.467,0 -0.077,0 -0.153,0 -0.229,0 4.151,-9.8 8.303,-19.6 12.455,-29.4 2.423,-5.718 4.845,-11.436 7.268,-17.154 0.435,-1.026 0.869,-2.051 1.304,-3.077 0.037,0 0.082,-10e-4 0.139,-10e-4 0.612,0 1.226,0 1.838,0 1.826,0 3.653,0 5.479,0 1.278,0 2.557,0 3.834,0 0.189,0 0.348,-0.158 0.348,-0.347 0,-1.707 0,-3.413 0,-5.119 0,-0.103 -0.037,-0.18 -0.094,-0.235 C 40.268,6.225 40.264,6.222 40.261,6.218 40.258,6.215 40.255,6.212 40.251,6.209 40.196,6.153 40.118,6.116 40.016,6.116 c -5.544,0 -11.089,0 -16.633,0 -0.17,0 -0.274,0.109 -0.335,0.255 C 19.062,15.967 15.075,25.563 11.089,35.16 8.436,41.547 5.782,47.934 3.13,54.322 2.318,56.277 1.505,58.231 0.693,60.187 0.458,60.742 0,61.438 0,62.058 c 0,11.797 0,23.594 0,35.391 0,0.734 0,1.47 0,2.205 0,0.189 0.157,0.346 0.347,0.346 7.638,0 15.275,0 22.913,0 8.787,0 17.575,0 26.362,0 8.787,0 17.575,0 26.362,0 7.638,0 15.275,0 22.913,0 0.189,0 0.347,-0.157 0.347,-0.347 0,-0.735 0,-1.471 0,-2.205 0,-11.797 0,-23.594 0,-35.391 0,-0.619 -0.458,-1.315 -0.689,-1.87 z" />
      <path
         id="path4095"
         d="m 67.09,40.912 c -3.737,0 -7.475,0 -11.213,0 0,-9.116 0,-18.231 0,-27.347 0,-4.426 0,-8.853 0,-13.28 C 55.877,0.13 55.747,0 55.592,0 c -3.98,0 -7.96,0 -11.94,0 -0.084,0 -0.148,0.031 -0.193,0.077 -0.003,0.002 -0.006,0.005 -0.009,0.007 -0.002,0.003 -0.005,0.005 -0.007,0.008 -0.046,0.045 -0.077,0.109 -0.077,0.193 0,9.211 0,18.422 0,27.632 0,4.332 0,8.663 0,12.994 -3.736,0 -7.474,0 -11.211,0 -0.261,0 -0.361,0.306 -0.202,0.487 5.791,6.599 11.582,13.197 17.373,19.797 0.031,0.035 0.063,0.071 0.095,0.107 0.098,0.111 0.306,0.111 0.403,0 5.792,-6.599 11.583,-13.198 17.374,-19.796 0.031,-0.036 0.062,-0.072 0.095,-0.108 0.158,-0.18 0.058,-0.486 -0.203,-0.486 z" />
    </g>
    <g
       id="g4350"
       transform="matrix(0,0.54763575,-0.54763575,0,1497.3816,7.5006873)">
      <path
         id="path4337"
         d="m 21.462,72.617 c 0,-3.271 2.651,-5.919 5.921,-5.919 3.269,0 5.919,2.648 5.919,5.919 0,3.27 -2.65,5.919 -5.919,5.919 -3.269,0 -5.921,-2.65 -5.921,-5.919 z M 29.671,45.33 c -1.523,-0.128 -3.055,-0.128 -4.578,0 l -2.707,7.382 c -1.968,0.493 -3.833,1.281 -5.531,2.294 L 9.704,51.703 C 8.537,52.69 7.455,53.773 6.468,54.94 l 3.307,7.135 c -1.044,1.738 -1.806,3.616 -2.29,5.532 l -7.391,2.721 c -0.127,1.523 -0.127,3.054 0,4.579 l 7.383,2.706 c 0.492,1.968 1.28,3.834 2.292,5.529 l -3.301,7.152 c 0.987,1.166 2.069,2.25 3.236,3.236 l 7.135,-3.306 c 1.739,1.043 3.616,1.805 5.532,2.287 l 2.721,7.393 c 1.523,0.127 3.054,0.127 4.578,0 l 2.707,-7.384 c 1.968,-0.491 3.833,-1.279 5.53,-2.292 l 7.151,3.302 c 1.166,-0.986 2.25,-2.07 3.237,-3.236 L 44.987,83.16 c 1.044,-1.74 1.806,-3.617 2.29,-5.534 l 7.391,-2.72 c 0.127,-1.525 0.127,-3.056 0,-4.579 L 47.286,67.621 C 46.793,65.652 46.004,63.787 44.992,62.09 l 3.302,-7.15 c -0.986,-1.167 -2.07,-2.25 -3.236,-3.237 l -7.134,3.307 c -1.74,-1.043 -3.617,-1.805 -5.533,-2.29 l -2.72,-7.39 z" />
      <path
         id="path4339"
         d="m 41.483,28.352 c -1.25,-3.021 0.185,-6.483 3.205,-7.735 3.02,-1.25 6.484,0.185 7.733,3.205 1.252,3.021 -0.184,6.483 -3.203,7.734 -3.02,1.251 -6.483,-0.183 -7.735,-3.204 z M 38.626,0 c -1.458,0.465 -2.871,1.051 -4.23,1.751 l 0.325,7.858 c -1.63,1.208 -3.052,2.649 -4.232,4.235 l -7.871,-0.315 c -0.7,1.359 -1.286,2.773 -1.752,4.23 l 5.786,5.326 c -0.299,2.005 -0.285,4.031 0.002,5.987 l -5.788,5.341 c 0.465,1.457 1.051,2.871 1.752,4.23 l 7.857,-0.325 c 1.207,1.63 2.649,3.053 4.235,4.232 l -0.315,7.87 c 1.359,0.701 2.773,1.286 4.23,1.752 l 5.326,-5.786 c 2.006,0.298 4.031,0.285 5.986,-0.002 l 5.344,5.788 c 1.455,-0.466 2.869,-1.053 4.229,-1.753 l -0.323,-7.855 c 1.628,-1.208 3.051,-2.65 4.23,-4.236 l 7.871,0.315 c 0.7,-1.359 1.285,-2.773 1.752,-4.23 l -5.786,-5.326 c 0.298,-2.007 0.284,-4.031 -0.003,-5.986 l 5.788,-5.344 C 72.573,16.3 71.988,14.886 71.288,13.528 L 63.43,13.853 C 62.224,12.223 60.781,10.801 59.196,9.621 L 59.51,1.75 C 58.151,1.051 56.737,0.465 55.281,0 L 49.956,5.785 C 47.948,5.487 45.924,5.501 43.969,5.787 L 38.626,0 z" />
    </g>
    <g
       style="display:inline;filter:url(#filter3721)"
       id="g2977"
       transform="matrix(0.00857143,0,0,0.00857143,617.15174,103.15708)">
      <rect
         style="fill:#808080;fill-opacity:1;stroke:none"
         id="rect2965"
         width="116.66666"
         height="50"
         x="1440.6299"
         y="1064.1521"
         ry="15.714287" />
      <path
         id="path2895"
         d="m 1530.2535,1086.8291 -5.0555,-5.121 h -30.0851 c -2.5856,-4.5129 -7.4468,-7.556 -13.021,-7.556 -8.2842,0 -15.0005,6.7152 -15.0005,14.9995 0,8.2842 6.7152,15.0005 15.0005,15.0005 5.6408,0 10.5511,-3.1152 13.1127,-7.7176 h 5.8821 l 4.6668,-4.7279 3.589,3.6371 3.5902,-3.6371 3.5891,3.6371 3.6491,-3.6972 3.7398,3.7879 0.09,-0.031 6.2817,-6.3647 c 0.7196,-0.725 0.7633,-1.4064 -0.028,-2.21 z m -54.7173,6.1201 c -2.2253,0 -4.0291,-1.8038 -4.0291,-4.0291 0,-2.2242 1.8038,-4.0281 4.0291,-4.0281 2.2253,0 4.028,1.8039 4.028,4.0281 0,2.2242 -1.8027,4.0291 -4.028,4.0291 z" />
    </g>
    <g
       id="g4415"
       transform="matrix(0.4,0,0,0.4,332.0434,7.5000026)">
      <path
         id="path4402"
         d="m 45.528,57.125 c 0,-10.462 0,-20.921 0,-31.383 0,-3.42 -5.304,-3.42 -5.304,0 0,10.461 0,20.921 0,31.383 0,3.42 5.304,3.42 5.304,0 l 0,0 z" />
      <path
         id="path4404"
         d="m 89.783,24.484 c 0,0 -3.212,-4.542 -4.452,-5.783 -1.319,-1.318 -5.781,-4.452 -5.781,-4.452 l -9.633,9.633 C 64.312,19.314 57.533,16.14 50.112,14.872 V 0.94 C 50.112,0.94 44.629,0 42.875,0 41.01,0 35.639,0.94 35.639,0.94 V 14.872 C 15.432,18.323 0,35.951 0,57.125 0,80.766 19.233,100 42.875,100 66.518,100 85.75,80.766 85.75,57.124 85.75,48.952 83.449,41.308 79.465,34.8 L 89.783,24.484 z M 42.875,94.696 c -20.717,0 -37.571,-16.853 -37.571,-37.571 0,-20.717 16.854,-37.571 37.571,-37.571 20.717,0 37.572,16.854 37.572,37.571 0,20.718 -16.854,37.571 -37.572,37.571 z" />
    </g>
    <g
       id="g2956"
       transform="matrix(0.65993474,0,0,0.65993474,235.42988,-80.934809)">
      <rect
         y="150.21408"
         x="626.41223"
         height="28.194679"
         width="31.463627"
         id="rect2954"
         style="fill:#ffffff;fill-opacity:1;stroke:#000000;stroke-width:1.51530135;stroke-linejoin:miter;stroke-miterlimit:4;stroke-opacity:1;stroke-dasharray:none;stroke-dashoffset:0" />
      <path
         id="path2928"
         d="m 555.25872,148.88785 c 0,3.32533 0,6.65122 0,9.9771 -5.99664,0 -11.99405,0 -17.99068,0 -0.0636,0 -0.11629,0.0377 -0.11629,0.0826 0,3.57643 0,7.15287 0,10.72985 0,0.0449 0.0527,0.0826 0.11629,0.0826 5.71831,0 11.4374,0 17.15572,0 0.959,0 0.83496,-0.17184 0.83496,0.47394 0,1.13357 0,2.2677 0,3.40182 0,2.03322 0,4.06645 0,6.09912 0,0.0753 0.12481,0.10698 0.19846,0.0588 7.83323,-5.14071 15.66645,-10.28252 23.49967,-15.42378 0.0457,-0.0305 0.0457,-0.0876 0,-0.11807 -7.83322,-5.14126 -15.66722,-10.28252 -23.49967,-15.42323 -0.0729,-0.0477 -0.19846,-0.015 -0.19846,0.0593 z m 0.10931,0.18293 0,0.18957 c -0.0248,-0.10532 -0.0333,-0.17183 0,-0.18957 z" />
      <rect
         y="144.81142"
         x="581.05554"
         height="39"
         width="59"
         id="rect2952"
         style="fill:#000000;fill-opacity:1;stroke:#000000;stroke-width:1.51530135;stroke-linejoin:miter;stroke-miterlimit:4;stroke-opacity:1;stroke-dasharray:none;stroke-dashoffset:0" />
      <path
         style="fill:#ffffff"
         id="path1334_1_"
         d="m 630.55555,164.3125 -4.4432,-2.53839 0,1.81039 -22.71235,0 4.42279,-4.62159 c 0.3752,-0.2976 0.868,-0.5076 1.3752,-0.5188 2.04879,0 3.26519,-0.001 3.71359,-0.002 0.3032,0.8564 1.1188,1.474 2.0884,1.474 1.22679,0 2.22319,-0.9852 2.22319,-2.19959 -4e-4,-1.214 -0.9964,-2.1984 -2.22319,-2.1984 -0.9696,0 -1.7852,0.61761 -2.0884,1.4732 l -3.6712,-9.9e-4 c -0.99439,0 -2.03719,0.53959 -2.69999,1.17319 0.0184,-0.0192 0.0368,-0.0396 -8.8e-4,0 -0.014,0.0156 -4.69199,4.90279 -4.69199,4.90279 -0.3752,0.2976 -0.8672,0.5064 -1.374,0.51759 l -2.56879,0 c -0.3412,-1.67839 -1.8396,-2.94358 -3.63799,-2.94358 -2.05,0 -3.7112,1.64319 -3.7112,3.67079 0,2.0276 1.6612,3.6716 3.7112,3.6716 1.79839,0 3.29679,-1.26559 3.63799,-2.94641 l 2.52439,0 c 0.007,0 0.0128,0 0.0192,0 l 5.58319,0 c 0.5052,0.012 0.9972,0.2212 1.3724,0.51881 0,0 4.67639,4.8872 4.69159,4.904 0.0376,0.0384 0.0184,0.018 0,0 0.664,0.63239 1.7064,1.172 2.7016,1.172 l 3.53679,-4e-4 0,1.474 4.44439,0 0,-4.39679 -4.44479,0 0,1.47239 c 0,0 -0.9312,-0.003 -3.58,-0.003 -0.5064,-0.0108 -0.99999,-0.22001 -1.37559,-0.51881 l -4.42319,-4.62239 17.15756,0 0,1.81399 4.44319,-2.53799 z" />
    </g>
    <g
       id="g3813"
       transform="translate(-287.14184,-197.39935)">
      <g
         transform="matrix(0.75604124,0,0,0.75604124,78.1983,56.301899)"
         id="g3809">
        <path
           sodipodi:type="arc"
           style="fill:none;stroke:#000000;stroke-width:9.56825352;stroke-linejoin:miter;stroke-miterlimit:4;stroke-opacity:1;stroke-dasharray:none;stroke-dashoffset:0"
           id="path4293"
           sodipodi:cx="315.81903"
           sodipodi:cy="-254.50858"
           sodipodi:rx="68.143524"
           sodipodi:ry="68.143524"
           d="m 247.75041,-257.70276 a 68.143524,68.143524 0 1 1 -0.0558,1.58196"
           sodipodi:start="3.1884842"
           sodipodi:end="9.4484394"
           sodipodi:open="true"
           transform="matrix(0.27647242,0,0,0.27647242,253.06366,293.36494)" />
        <path
           sodipodi:type="star"
           style="fill:#000000;stroke:#000000;stroke-width:4.78412676;stroke-linejoin:miter;stroke-miterlimit:4;stroke-opacity:1;stroke-dasharray:none;stroke-dashoffset:0"
           id="path4295"
           sodipodi:sides="3"
           sodipodi:cx="524.18097"
           sodipodi:cy="-388.17474"
           sodipodi:r1="33.818813"
           sodipodi:r2="16.909407"
           sodipodi:arg1="2.0943951"
           sodipodi:arg2="3.1415927"
           inkscape:flatsided="false"
           inkscape:rounded="0"
           inkscape:randomized="0"
           d="m 507.27156,-358.88679 0,-29.28795 0,-29.28796 25.36411,14.64398 25.36411,14.64398 -25.36411,14.64397 -25.36411,14.64398 z"
           transform="matrix(0.27647242,0,0,0.27647242,202.94754,330.31993)" />
      </g>
      <path
         d="m 353.98903,212.48007 v 7.58073 l 24.05376,24.05376 c 1.04679,1.04639 2.74357,1.04639 3.79036,0 l 11.37069,-11.37149 c 1.04639,-1.04639 1.04639,-2.74317 0,-3.79036 l -24.05376,-24.05336 h -7.58033 l -7.58072,7.58072 z m 12.55907,4.84156 c -1.04679,1.04679 -2.74357,1.04679 -3.79036,0 -1.04679,-1.04679 -1.04679,-2.74358 0,-3.79037 1.04639,-1.04679 2.74317,-1.04679 3.79036,0 1.04679,1.04679 1.04679,2.74358 0,3.79037 z"
         id="path3797" />
    </g>
    <path
       id="path4271"
       d="m 523.65643,17.245563 v -2.208535 h -11.33547 v -5.037025 h -17.41654 c -4.08858,0 -10.2356,3.618738 -12.34384,8.589123 h -9.3888 c -9.27909,0 -16.82822,7.549141 -16.82822,16.828218 v 9.582659 h 7.01198 v -9.582659 c 0,-5.412627 4.4036,-9.816231 9.81624,-9.816231 h 9.3888 c 2.10824,4.970376 8.25526,8.589796 12.34384,8.589796 h 17.41654 v -5.037025 h 11.33547 v -2.208535 h -11.33547 v -9.699786 h 11.33547 z" />
    <g
       id="g4416"
       transform="translate(520.28975,-269.52722)">
      <text
         sodipodi:linespacing="125%"
         id="text4347"
         y="317.02722"
         x="513.4718"
         style="font-size:55.87994385px;font-style:normal;font-variant:normal;font-weight:normal;font-stretch:normal;text-align:center;line-height:125%;writing-mode:lr-tb;text-anchor:middle;fill:#000000;fill-opacity:1;stroke:none;font-family:Arial;-inkscape-font-specification:Arial"
         xml:space="preserve"><tspan
           y="317.02722"
           x="513.4718"
           id="tspan4349"
           sodipodi:role="line">P</tspan></text>
      <text
         sodipodi:linespacing="125%"
         id="text4351"
         y="316.77985"
         x="540.89764"
         style="font-size:20.26385307px;font-style:normal;font-variant:normal;font-weight:normal;font-stretch:normal;text-align:center;line-height:125%;writing-mode:lr-tb;text-anchor:middle;fill:#000000;fill-opacity:1;stroke:none;font-family:Arial;-inkscape-font-specification:Arial"
         xml:space="preserve"><tspan
           y="316.77985"
           x="540.89764"
           id="tspan4353"
           sodipodi:role="line">ASP</tspan></text>
    </g>
    <g
       id="g2923"
       transform="translate(1.5893418,-1.909941)">
      <text
         xml:space="preserve"
         style="font-size:55.87994385px;font-style:normal;font-variant:normal;font-weight:normal;font-stretch:normal;text-align:center;line-height:125%;writing-mode:lr-tb;text-anchor:middle;fill:#000000;fill-opacity:1;stroke:none;font-family:Arial;-inkscape-font-specification:Arial"
         x="1176.1182"
         y="49.409943"
         id="text4373"
         sodipodi:linespacing="125%"><tspan
           y="49.409943"
           x="1176.1182"
           id="tspan4385"
           sodipodi:role="line">F</tspan></text>
      <text
         xml:space="preserve"
         style="font-size:20.26385307px;font-style:normal;font-variant:normal;font-weight:normal;font-stretch:normal;text-align:center;line-height:125%;writing-mode:lr-tb;text-anchor:middle;fill:#000000;fill-opacity:1;stroke:none;font-family:Arial;-inkscape-font-specification:Arial"
         x="1201.5441"
         y="45.145432"
         id="text4377"
         sodipodi:linespacing="125%"><tspan
           y="45.145432"
           x="1201.5441"
           id="tspan4387"
           sodipodi:role="line">(p)</tspan></text>
    </g>
    <g
       id="g2933"
       transform="translate(2.5893416,-1.9099635)">
      <text
         sodipodi:linespacing="125%"
         id="text4393"
         y="49.409966"
         x="1306.0275"
         style="font-size:55.87994385px;font-style:normal;font-variant:normal;font-weight:normal;font-stretch:normal;text-align:center;line-height:125%;writing-mode:lr-tb;text-anchor:middle;fill:#000000;fill-opacity:1;stroke:none;font-family:Arial;-inkscape-font-specification:Arial"
         xml:space="preserve"><tspan
           sodipodi:role="line"
           id="tspan4395"
           x="1306.0275"
           y="49.409966">F</tspan></text>
      <text
         sodipodi:linespacing="125%"
         id="text4397"
         y="49.409966"
         x="1339.4534"
         style="font-size:20.26385307px;font-style:normal;font-variant:normal;font-weight:normal;font-stretch:normal;text-align:center;line-height:125%;writing-mode:lr-tb;text-anchor:middle;fill:#000000;fill-opacity:1;stroke:none;font-family:Arial;-inkscape-font-specification:Arial"
         xml:space="preserve"><tspan
           y="49.409966"
           x="1339.4534"
           id="tspan4401"
           sodipodi:role="line">MAX</tspan></text>
    </g>
  </g>
</svg>
